<?xml version="1.0" encoding="UTF-8" standalone="no"?><!DOCTYPE svg PUBLIC "-//W3C//DTD SVG 1.1//EN" "http://www.w3.org/Graphics/SVG/1.1/DTD/svg11.dtd"><svg width="100%" height="100%" viewBox="0 0 2467 830" version="1.1" xmlns="http://www.w3.org/2000/svg" xmlns:xlink="http://www.w3.org/1999/xlink" xml:space="preserve" xmlns:serif="http://www.serif.com/" style="fill-rule:evenodd;clip-rule:evenodd;stroke-linejoin:round;stroke-miterlimit:2;"><g><path d="M161.8,700.45l-38.475,-120.058l29.746,-0l14.608,50.766c4.096,14.43 7.838,27.967 10.688,42.929l0.533,0c3.029,-14.429 6.767,-28.679 10.862,-42.391l15.321,-51.304l28.859,-0l-40.438,120.058l-31.704,-0Z" style="fill:#c1272d;fill-rule:nonzero;"/><path d="M290.508,646.838c0,-6.413 -2.85,-17.638 -15.141,-17.638c-11.575,-0 -16.209,10.508 -16.921,17.638l32.062,-0Zm-31.883,18.52c0.892,11.4 11.933,16.742 24.583,16.742c9.259,-0 16.742,-1.242 24.046,-3.738l3.563,18.346c-8.905,3.742 -19.771,5.525 -31.53,5.525c-29.566,0 -46.491,-17.104 -46.491,-44.533c-0,-22.087 13.896,-46.492 44,-46.492c28.141,0 38.829,21.913 38.829,43.463c-0,4.633 -0.533,8.729 -0.892,10.867l-56.108,-0.18Z" style="fill:#c1272d;fill-rule:nonzero;"/><path d="M332.383,642.025c0,-12.825 -0.175,-21.2 -0.708,-28.679l23.154,-0l1.071,16.208l0.708,0c4.454,-12.825 14.967,-18.166 23.517,-18.166c2.492,-0 3.737,0.179 5.7,0.533l-0,25.471c-2.317,-0.355 -4.454,-0.713 -7.483,-0.713c-9.975,0 -16.742,5.167 -18.525,13.717c-0.354,1.783 -0.534,3.742 -0.534,6.054l0,44l-27.075,-0l0.175,-58.425Z" style="fill:#c1272d;fill-rule:nonzero;"/><path d="M425.637,663.4c0,1.783 0.175,3.387 0.534,4.808c1.779,7.125 8.017,12.83 15.854,12.83c11.579,-0 18.704,-8.909 18.704,-24.588c0,-13.538 -6.058,-24.221 -18.704,-24.221c-7.304,0 -14.075,5.521 -15.854,13.359c-0.359,1.604 -0.534,3.204 -0.534,4.987l0,12.825Zm-27.079,-89.421l27.079,0l0,49.7l0.355,0c5.166,-7.483 14.25,-12.291 26.362,-12.291c20.842,-0 35.983,17.275 35.804,43.995c0,31.35 -19.77,47.025 -39.72,47.025c-10.155,0 -20.13,-3.741 -26.188,-14.07l-0.354,-0l-1.067,12.112l-22.983,-0c0.358,-5.7 0.712,-16.208 0.712,-26.004l0,-100.467Z" style="fill:#c1272d;fill-rule:nonzero;"/><path d="M586.892,672.483c-0,11.4 0.354,20.663 0.712,27.967l-23.512,-0l-1.246,-12.287l-0.538,-0c-3.383,5.341 -11.579,14.245 -27.25,14.245c-17.816,0 -30.637,-11.041 -30.637,-37.941l-0,-51.121l27.075,-0l-0,46.85c-0,12.646 4.096,20.304 13.712,20.304c7.484,-0 11.934,-5.167 13.538,-9.442c0.712,-1.604 1.071,-3.558 1.071,-5.875l-0,-51.837l27.075,-0l-0,59.137Z" style="fill:#c1272d;fill-rule:nonzero;"/><path d="M608.354,641.133c0,-10.866 -0.358,-19.95 -0.717,-27.787l23.517,-0l1.246,12.112l0.533,0c3.563,-5.695 12.292,-14.07 26.896,-14.07c17.817,-0 31.175,11.933 31.175,37.583l0,51.479l-27.075,-0l0,-48.271c0,-11.225 -3.921,-18.879 -13.717,-18.879c-7.483,0 -11.933,5.162 -13.895,10.15c-0.713,1.783 -0.888,4.271 -0.888,6.767l0,50.233l-27.075,-0l0,-59.317Z" style="fill:#c1272d;fill-rule:nonzero;"/><path d="M769.379,650.396c0,-1.604 0,-3.383 -0.358,-4.988c-1.6,-7.3 -7.479,-13.179 -15.854,-13.179c-12.467,0 -18.705,11.042 -18.705,24.758c0,14.605 7.305,23.871 18.53,23.871c7.837,0 14.25,-5.345 15.85,-13.004c0.358,-1.783 0.537,-3.921 0.537,-6.058l0,-11.4Zm27.075,-76.417l0,100.467c0,9.971 0.354,20.129 0.713,26.004l-24.05,-0l-1.067,-12.646l-0.533,0c-5.346,9.617 -16.034,14.604 -27.254,14.604c-20.663,0 -37.23,-17.633 -37.23,-44.708c-0.175,-29.212 18.171,-46.312 39.009,-46.312c10.866,-0 19.062,3.916 22.979,9.795l0.358,0l0,-47.204l27.075,0Z" style="fill:#c1272d;fill-rule:nonzero;"/><path d="M910.092,680.858c18.35,0 28.858,-17.279 28.858,-40.791c0,-21.554 -10.154,-40.084 -28.858,-40.084c-18.7,0 -29.209,18.175 -29.209,40.617c0,22.621 10.863,40.258 29.034,40.258l0.175,0Zm-1.242,21.55c-35.45,0 -56.471,-26.895 -56.471,-61.1c0,-35.975 23.158,-62.875 58.429,-62.875c36.871,0 57,27.613 57,60.742c0,39.546 -23.691,63.233 -58.783,63.233l-0.175,0Z" style="fill:#c1272d;fill-rule:nonzero;"/><path d="M989.662,700.45l0,-67.15l-11.579,0l0,-19.954l11.579,-0l0,-3.384c0,-10.508 3.209,-22.087 10.863,-29.212c6.95,-6.413 16.212,-8.729 24.229,-8.729c5.879,-0 10.508,0.887 14.25,1.779l-1.071,20.842c-2.316,-0.713 -5.166,-1.246 -8.729,-1.246c-8.904,-0 -12.646,6.946 -12.646,15.496l0,4.454l17.459,-0l-0,19.954l-17.28,0l0,67.15l-27.075,-0Z" style="fill:#c1272d;fill-rule:nonzero;"/><path d="M1053.95,700.45l-0,-67.15l-11.579,0l-0,-19.954l11.579,-0l-0,-3.384c-0,-10.508 3.204,-22.087 10.862,-29.212c6.946,-6.413 16.213,-8.729 24.225,-8.729c5.879,-0 10.513,0.887 14.255,1.779l-1.071,20.842c-2.317,-0.713 -5.167,-1.246 -8.729,-1.246c-8.909,-0 -12.646,6.946 -12.646,15.496l-0,4.454l17.454,-0l-0,19.954l-17.275,0l-0,67.15l-27.075,-0Z" style="fill:#c1272d;fill-rule:nonzero;"/><path d="M1163.53,646.838c0,-6.413 -2.85,-17.638 -15.142,-17.638c-11.579,-0 -16.208,10.508 -16.921,17.638l32.063,-0Zm-31.883,18.52c0.891,11.4 11.933,16.742 24.583,16.742c9.258,-0 16.742,-1.242 24.046,-3.738l3.562,18.346c-8.908,3.742 -19.771,5.525 -31.529,5.525c-29.566,0 -46.492,-17.104 -46.492,-44.533c0,-22.087 13.892,-46.492 44,-46.492c28.142,0 38.83,21.913 38.83,43.463c-0,4.633 -0.534,8.729 -0.892,10.867l-56.108,-0.18Z" style="fill:#c1272d;fill-rule:nonzero;"/><path d="M1205.31,641.133c0,-10.866 -0.354,-19.95 -0.712,-27.787l23.513,-0l1.245,12.112l0.538,0c3.558,-5.695 12.287,-14.07 26.896,-14.07c17.812,-0 31.17,11.933 31.17,37.583l0,51.479l-27.074,-0l-0,-48.271c-0,-11.225 -3.917,-18.879 -13.717,-18.879c-7.484,0 -11.933,5.162 -13.896,10.15c-0.712,1.783 -0.887,4.271 -0.887,6.767l-0,50.233l-27.076,-0l0,-59.317Z" style="fill:#c1272d;fill-rule:nonzero;"/><path d="M1361.6,646.838c-0,-6.413 -2.85,-17.638 -15.142,-17.638c-11.579,-0 -16.208,10.508 -16.921,17.638l32.063,-0Zm-31.883,18.52c0.891,11.4 11.933,16.742 24.579,16.742c9.262,-0 16.746,-1.242 24.05,-3.738l3.558,18.346c-8.9,3.742 -19.771,5.525 -31.525,5.525c-29.571,0 -46.491,-17.104 -46.491,-44.533c-0,-22.087 13.895,-46.492 43.995,-46.492c28.146,0 38.834,21.913 38.834,43.463c-0,4.633 -0.534,8.729 -0.892,10.867l-56.108,-0.18Z" style="fill:#c1272d;fill-rule:nonzero;"/><path d="M1403.48,642.025c0,-12.825 -0.175,-21.2 -0.713,-28.679l23.159,-0l1.071,16.208l0.708,0c4.454,-12.825 14.963,-18.166 23.512,-18.166c2.496,-0 3.742,0.179 5.7,0.533l0,25.471c-2.312,-0.355 -4.449,-0.713 -7.479,-0.713c-9.975,0 -16.741,5.167 -18.525,13.717c-0.358,1.783 -0.533,3.742 -0.533,6.054l0,44l-27.075,-0l0.175,-58.425Z" style="fill:#c1272d;fill-rule:nonzero;"/><path d="M1526.74,700.45l-28.504,-120.058l29.038,-0l9.087,49.341c2.667,14.429 5.163,29.925 7.125,42.217l0.354,0c1.959,-13.179 4.809,-27.608 7.834,-42.575l10.158,-48.983l28.854,-0l9.617,50.587c2.675,14.075 4.633,26.9 6.412,40.259l0.359,-0c1.783,-13.359 4.454,-27.434 6.946,-41.863l9.8,-48.983l27.608,-0l-30.996,120.058l-29.387,-0l-10.155,-51.658c-2.316,-12.113 -4.275,-23.334 -5.699,-37.046l-0.359,-0c-2.137,13.537 -4.096,24.933 -6.946,37.046l-11.4,51.658l-29.746,-0Z" style="fill:#c1272d;fill-rule:nonzero;"/><path d="M1711.57,646.838c-0,-6.413 -2.846,-17.638 -15.138,-17.638c-11.579,-0 -16.208,10.508 -16.92,17.638l32.058,-0Zm-31.883,18.52c0.891,11.4 11.933,16.742 24.583,16.742c9.262,-0 16.746,-1.242 24.046,-3.738l3.562,18.346c-8.904,3.742 -19.771,5.525 -31.529,5.525c-29.567,0 -46.487,-17.104 -46.487,-44.533c-0,-22.087 13.891,-46.492 43.995,-46.492c28.142,0 38.834,21.913 38.834,43.463c-0,4.633 -0.534,8.729 -0.892,10.867l-56.112,-0.18Z" style="fill:#c1272d;fill-rule:nonzero;"/><path d="M1753.45,642.025c0,-12.825 -0.179,-21.2 -0.712,-28.679l23.158,-0l1.067,16.208l0.712,0c4.454,-12.825 14.963,-18.166 23.513,-18.166c2.495,-0 3.741,0.179 5.7,0.533l-0,25.471c-2.313,-0.355 -4.455,-0.713 -7.484,-0.713c-9.971,0 -16.742,5.167 -18.525,13.717c-0.354,1.783 -0.533,3.742 -0.533,6.054l-0,44l-27.075,-0l0.179,-58.425Z" style="fill:#c1272d;fill-rule:nonzero;"/><path d="M1846.7,650.217l0.354,-0c1.963,-3.738 4.096,-7.305 6.234,-10.509l17.633,-26.362l32.6,-0l-31.175,35.266l35.629,51.838l-33.312,-0l-21.196,-35.804l-6.767,8.729l0,27.075l-27.075,-0l-0,-126.471l27.075,0l0,76.238Z" style="fill:#c1272d;fill-rule:nonzero;"/><path d="M1919.8,676.938c4.988,3.029 15.321,6.412 23.337,6.412c8.188,0 11.576,-2.671 11.576,-7.125c-0,-4.633 -2.675,-6.771 -12.646,-10.154c-18.171,-5.875 -25.121,-15.854 -24.942,-26.004c-0,-16.388 13.896,-28.679 35.45,-28.679c10.154,-0 19.058,2.491 24.404,5.166l-4.633,18.521c-3.917,-1.954 -11.579,-4.808 -18.879,-4.808c-6.592,-0 -10.33,2.675 -10.33,6.95c0,4.271 3.38,6.412 14.067,10.154c16.567,5.521 23.338,14.066 23.513,26.716c-0,16.388 -12.646,28.321 -37.58,28.321c-11.404,0 -21.554,-2.67 -28.145,-6.233l4.808,-19.237Z" style="fill:#c1272d;fill-rule:nonzero;"/><path d="M2027.08,589.654l0,23.692l19.413,-0l-0,19.954l-19.413,0l0,31.704c0,10.509 2.671,15.321 10.684,15.321c3.741,-0 5.525,-0.179 8.016,-0.717l0.18,20.488c-3.384,1.246 -9.976,2.312 -17.455,2.312c-8.729,0 -16.033,-3.025 -20.483,-7.479c-4.987,-5.167 -7.483,-13.537 -7.483,-25.829l-0,-35.8l-11.579,0l-0,-19.954l11.579,-0l-0,-16.388l26.541,-7.304Z" style="fill:#c1272d;fill-rule:nonzero;"/><path d="M2116.77,603.017c-6.95,-0 -11.934,-5.525 -11.934,-12.113c0,-6.95 5.163,-12.112 12.109,-12.112c6.95,-0 11.937,5.162 11.937,12.112c0,6.588 -4.987,12.113 -11.937,12.113l-0.175,-0Zm-7.838,56.287c-14.25,0 -25.296,3.383 -25.296,13.717c0,6.946 4.634,10.329 10.692,10.329c6.592,0 12.288,-4.454 14.071,-9.975c0.358,-1.425 0.533,-3.029 0.533,-4.633l0,-9.438Zm-28.321,-56.287c-6.766,-0 -12.116,-5.525 -12.116,-12.113c-0,-6.95 5.35,-12.112 12.296,-12.112c6.766,-0 11.754,5.162 11.754,12.112c-0,6.588 -4.988,12.113 -11.754,12.113l-0.18,-0Zm54.505,76.416c-0,8.192 0.358,16.204 1.429,21.017l-24.409,-0l-1.604,-8.729l-0.533,-0c-5.7,6.946 -14.604,10.687 -24.938,10.687c-17.629,0 -28.141,-12.825 -28.141,-26.72c-0,-22.617 20.304,-33.309 51.125,-33.309l-0,-1.071c-0,-4.629 -2.496,-11.216 -15.859,-11.216c-8.904,-0 -18.341,3.029 -24.041,6.412l-4.992,-17.279c6.054,-3.388 17.992,-7.837 33.842,-7.837c29.037,-0 38.121,17.1 38.121,37.583l-0,30.462Z" style="fill:#c1272d;fill-rule:nonzero;"/><path d="M2185.65,589.654l0,23.692l19.413,-0l-0,19.954l-19.413,0l0,31.704c0,10.509 2.667,15.321 10.683,15.321c3.742,-0 5.521,-0.179 8.017,-0.717l0.179,20.488c-3.387,1.246 -9.979,2.312 -17.458,2.312c-8.729,0 -16.029,-3.025 -20.483,-7.479c-4.988,-5.167 -7.484,-13.537 -7.484,-25.829l0,-35.8l-11.579,0l0,-19.954l11.579,-0l0,-16.388l26.546,-7.304Z" style="fill:#c1272d;fill-rule:nonzero;"/><path d="M2252.96,589.654l0,23.692l19.417,-0l-0,19.954l-19.417,0l0,31.704c0,10.509 2.675,15.321 10.688,15.321c3.741,-0 5.525,-0.179 8.016,-0.717l0.176,20.488c-3.38,1.246 -9.971,2.312 -17.455,2.312c-8.729,0 -16.033,-3.025 -20.483,-7.479c-4.992,-5.167 -7.483,-13.537 -7.483,-25.829l-0,-35.8l-11.575,0l-0,-19.954l11.575,-0l-0,-16.388l26.541,-7.304Z" style="fill:#c1272d;fill-rule:nonzero;"/><path d="M2339.83,646.838c0,-6.413 -2.854,-17.638 -15.142,-17.638c-11.579,-0 -16.212,10.508 -16.925,17.638l32.067,-0Zm-31.887,18.52c0.891,11.4 11.937,16.742 24.583,16.742c9.258,-0 16.742,-1.242 24.046,-3.738l3.562,18.346c-8.904,3.742 -19.77,5.525 -31.529,5.525c-29.567,0 -46.492,-17.104 -46.492,-44.533c0,-22.087 13.896,-46.492 44.001,-46.492c28.141,0 38.829,21.913 38.829,43.463c-0,4.633 -0.534,8.729 -0.892,10.867l-56.108,-0.18Z" style="fill:#c1272d;fill-rule:nonzero;"/><path d="M2381.62,641.133c-0,-10.866 -0.359,-19.95 -0.717,-27.787l23.517,-0l1.241,12.112l0.538,0c3.562,-5.695 12.292,-14.07 26.896,-14.07c17.816,-0 31.175,11.933 31.175,37.583l-0,51.479l-27.075,-0l-0,-48.271c-0,-11.225 -3.921,-18.879 -13.717,-18.879c-7.483,0 -11.933,5.162 -13.896,10.15c-0.712,1.783 -0.887,4.271 -0.887,6.767l-0,50.233l-27.075,-0l-0,-59.317Z" style="fill:#c1272d;fill-rule:nonzero;"/><path d="M157.079,731.55l48.742,0l-1.996,10.117l-36.771,-0l-6.275,32.358l33.925,-0l-2,9.979l-33.916,0l-8.121,43.6l-11.83,0l18.242,-96.054Z" style="fill:#f7931d;fill-rule:nonzero;"/><path d="M200.217,827.604l8.416,-44.462c1.704,-8.988 2.7,-18.104 3.413,-24.509l10.4,0c-0.421,4.842 -0.992,9.55 -1.85,14.959l0.429,-0c4.558,-9.409 11.829,-16.53 21.092,-16.53c1.137,0 2.425,0.134 3.416,0.288l-2.279,11.679c-0.85,-0.133 -1.996,-0.287 -3.275,-0.287c-10.121,-0 -19.241,12.4 -22.229,28.366l-5.704,30.496l-11.829,0Z" style="fill:#f7931d;fill-rule:nonzero;"/><path d="M290.746,775.013c-0,-5.551 -4.279,-8.696 -10.546,-8.696c-11.263,-0 -19.667,10.987 -22.517,21.812c18.525,0.283 33.063,-2.279 33.063,-12.962l-0,-0.154Zm2.562,48.741c-5.125,2.863 -13.537,5.413 -22.804,5.413c-18.242,-0 -26.221,-12.525 -26.221,-27.779c0,-20.817 15.392,-44.326 37.621,-44.326c13.117,0 20.246,7.846 20.246,17.821c-0,18.088 -20.379,22.8 -45.892,22.367c-0.57,2.992 -0.141,9.408 1.425,13.104c2.709,6.288 8.263,9.275 15.388,9.275c8.125,0 14.254,-2.421 18.529,-4.712l1.708,8.837Z" style="fill:#f7931d;fill-rule:nonzero;"/><path d="M329.833,745.946c-4.137,-0 -6.983,-3.275 -6.983,-7.7c0.146,-4.7 3.704,-8.404 8.121,-8.404c4.416,-0 7.412,3.275 7.412,7.696c-0.141,4.987 -3.708,8.408 -8.412,8.408l-0.138,-0Zm-22.095,81.658l13.112,-68.971l11.833,0l-13.112,68.971l-11.833,0Z" style="fill:#f7931d;fill-rule:nonzero;"/><path d="M340.1,827.604l8.412,-44.462c1.705,-8.988 2.705,-18.104 3.413,-24.509l10.404,0c-0.425,4.842 -0.996,9.55 -1.85,14.959l0.429,-0c4.559,-9.409 11.83,-16.53 21.092,-16.53c1.138,0 2.421,0.134 3.421,0.288l-2.283,11.679c-0.85,-0.133 -1.996,-0.287 -3.276,-0.287c-10.12,-0 -19.241,12.4 -22.233,28.366l-5.704,30.496l-11.825,0Z" style="fill:#f7931d;fill-rule:nonzero;"/><path d="M435.358,767.462c-1.704,-0.57 -4.129,-0.991 -8.125,-0.991c-17.816,-0 -32.487,18.525 -32.487,37.762c-0,7.692 2.7,15.242 11.683,15.242c9.975,0 21.663,-12.817 24.946,-31.2l3.983,-20.813Zm-7.554,60.142c0,-4.137 0.713,-10.683 1.567,-17.817l-0.279,0c-7.555,14.4 -17.105,19.38 -26.8,19.38c-12.254,-0 -19.809,-9.692 -19.809,-22.796c0,-24.088 17.671,-49.309 47.6,-49.309c6.554,0 13.825,1.146 18.529,2.559l-6.983,36.067c-2.279,11.958 -3.137,24.229 -2.85,31.916l-10.975,0Z" style="fill:#f7931d;fill-rule:nonzero;"/><path d="M523.233,758.633l-9.408,48.884c-1.429,7.687 -2.425,14.387 -2.992,20.087l-10.691,0l1.854,-12.975l-0.283,0c-6.271,8.984 -15.251,14.538 -24.371,14.538c-8.834,-0 -18.242,-4.267 -18.242,-19.938c-0,-3.283 0.429,-7.137 1.283,-11.692l7.555,-38.904l11.683,0l-7.267,38.475c-0.716,3.842 -1.146,7.125 -1.146,10.121c0,7.117 2.855,11.963 10.979,11.963c8.696,-0 19.667,-10.113 22.517,-25.221l6.696,-35.338l11.833,0Z" style="fill:#f7931d;fill-rule:nonzero;"/><path d="M530.454,827.604l9.263,-48.883c1.429,-7.696 2.421,-14.388 3.137,-20.088l10.4,0l-1.85,12.971l0.425,0c6.413,-9.692 15.104,-14.542 24.229,-14.542c10.55,0 15.53,6.696 16.105,15.396c6.129,-9.979 14.966,-15.262 25.22,-15.396c7.988,0 16.821,5.134 16.821,18.105c0,3.129 -0.429,7.829 -1.142,11.679l-7.691,40.758l-11.546,0l7.408,-39.762c0.567,-2.563 0.996,-6.125 0.996,-8.975c0,-7.263 -2.704,-11.975 -10.396,-11.975c-8.558,-0 -18.816,9.979 -21.666,25.375l-6.554,35.337l-11.401,0l7.696,-40.471c0.567,-3.129 0.85,-5.704 0.85,-8.412c0,-5.842 -1.562,-11.829 -10.258,-11.829c-8.692,-0 -19.383,11.404 -22.092,26.079l-6.416,34.633l-11.538,0Z" style="fill:#f7931d;fill-rule:nonzero;"/><path d="M665.842,820.333l33.487,-37.337c5.842,-6.413 9.696,-9.975 14.396,-14.254l0,-0.421l-35.346,-0l1.996,-9.688l49.458,0l-1.575,7.838l-32.916,36.766c-6.267,6.696 -9.98,10.263 -14.255,14.259l-0.141,0.417l38.337,-0l-2,9.691l-52.729,0l1.288,-7.271Z" style="fill:#f7931d;fill-rule:nonzero;"/><path d="M796.913,758.633l-9.409,48.884c-1.425,7.687 -2.421,14.387 -2.987,20.087l-10.692,0l1.854,-12.975l-0.287,0c-6.271,8.984 -15.246,14.538 -24.367,14.538c-8.838,-0 -18.242,-4.267 -18.242,-19.938c0,-3.283 0.429,-7.137 1.28,-11.692l7.554,-38.904l11.687,0l-7.271,38.475c-0.712,3.842 -1.133,7.125 -1.133,10.121c0,7.117 2.842,11.963 10.971,11.963c8.691,-0 19.662,-10.113 22.517,-25.221l6.695,-35.338l11.83,0Z" style="fill:#f7931d;fill-rule:nonzero;"/><path d="M804.133,827.604l9.263,-48.883c1.433,-7.696 2.425,-14.388 3.137,-20.088l10.404,0l-1.854,12.971l0.43,0c6.412,-9.692 15.108,-14.542 24.224,-14.542c10.555,0 15.534,6.696 16.105,15.396c6.125,-9.979 14.971,-15.262 25.225,-15.396c7.983,0 16.821,5.134 16.821,18.105c-0,3.129 -0.43,7.829 -1.146,11.679l-7.692,40.758l-11.542,0l7.409,-39.762c0.571,-2.563 1,-6.125 1,-8.975c-0,-7.263 -2.713,-11.975 -10.405,-11.975c-8.558,-0 -18.812,9.979 -21.666,25.375l-6.554,35.337l-11.4,0l7.7,-40.471c0.562,-3.129 0.85,-5.704 0.85,-8.412c-0,-5.842 -1.567,-11.829 -10.259,-11.829c-8.696,-0 -19.383,11.404 -22.091,26.079l-6.417,34.633l-11.542,0Z" style="fill:#f7931d;fill-rule:nonzero;"/><path d="M947.217,812.783c5.129,3.563 12.4,6.125 20.379,6.125c10.837,0 20.804,-6.416 20.804,-17.958c0,-7.263 -3.987,-12.538 -14.1,-17.954c-12.258,-6.696 -19.1,-14.392 -19.1,-24.654c0,-17.246 14.817,-28.217 32.496,-28.217c9.404,-0 16.383,2.704 19.666,4.992l-4.279,9.691c-2.996,-1.85 -8.979,-4.708 -16.533,-4.562c-11.975,-0 -19.096,7.829 -19.096,15.667c0,7.845 4.846,12.27 14.967,17.824c11.829,6.413 18.241,13.963 18.241,25.651c0,16.67 -12.966,29.779 -34.633,29.779c-9.692,-0.134 -19.092,-3.129 -23.087,-6.692l4.275,-9.692Z" style="fill:#f7931d;fill-rule:nonzero;"/><path d="M1057.75,775.013c0,-5.551 -4.279,-8.696 -10.55,-8.696c-11.258,-0 -19.667,10.987 -22.516,21.812c18.529,0.283 33.066,-2.279 33.066,-12.962l0,-0.154Zm2.559,48.741c-5.126,2.863 -13.538,5.413 -22.8,5.413c-18.246,-0 -26.221,-12.525 -26.221,-27.779c-0,-20.817 15.387,-44.326 37.62,-44.326c13.117,0 20.238,7.846 20.238,17.821c0,18.088 -20.375,22.8 -45.883,22.367c-0.575,2.992 -0.146,9.408 1.421,13.104c2.708,6.288 8.262,9.275 15.391,9.275c8.125,0 14.25,-2.421 18.525,-4.712l1.709,8.837Z" style="fill:#f7931d;fill-rule:nonzero;"/><path d="M1074.82,827.604l19.242,-101.187l11.833,-0l-19.25,101.187l-11.825,0Z" style="fill:#f7931d;fill-rule:nonzero;"/><path d="M1122.55,800.95c-0.571,2.421 -0.996,5.129 -0.854,8.837c-0,6.559 3.845,10.13 11.116,10.13c17.809,-0 28.642,-21.242 28.642,-36.638c-0,-8.546 -3.704,-16.387 -13.108,-16.387c-10.259,-0 -20.809,10.55 -24.225,26.795l-1.571,7.263Zm14.966,-74.533l-9.12,44.746l0.283,-0c6.129,-9.251 14.962,-14.101 24.225,-14.101c15.108,0 20.808,12.538 20.808,24.809c0,21.221 -15.241,47.296 -42.891,47.296c-12.121,-0 -21.242,-4.98 -21.242,-17.667c0,-3.413 0.571,-7.546 1.287,-10.833l14.821,-74.25l11.829,-0Z" style="fill:#f7931d;fill-rule:nonzero;"/><path d="M1229.27,775.013c-0,-5.551 -4.275,-8.696 -10.542,-8.696c-11.262,-0 -19.675,10.987 -22.521,21.812c18.525,0.283 33.063,-2.279 33.063,-12.962l-0,-0.154Zm2.562,48.741c-5.125,2.863 -13.533,5.413 -22.8,5.413c-18.245,-0 -26.216,-12.525 -26.216,-27.779c-0,-20.817 15.383,-44.326 37.616,-44.326c13.121,0 20.246,7.846 20.246,17.821c0,18.088 -20.387,22.8 -45.896,22.367c-0.571,2.992 -0.141,9.408 1.425,13.104c2.709,6.288 8.263,9.275 15.392,9.275c8.125,0 14.254,-2.421 18.525,-4.712l1.708,8.837Z" style="fill:#f7931d;fill-rule:nonzero;"/><path d="M1246.27,827.604l8.412,-44.462c1.708,-8.988 2.7,-18.104 3.417,-24.509l10.408,0c-0.425,4.842 -1,9.55 -1.862,14.959l0.433,-0c4.558,-9.409 11.833,-16.53 21.092,-16.53c1.137,0 2.42,0.134 3.42,0.288l-2.283,11.679c-0.85,-0.133 -1.996,-0.287 -3.275,-0.287c-10.121,-0 -19.246,12.4 -22.229,28.366l-5.704,30.496l-11.829,0Z" style="fill:#f7931d;fill-rule:nonzero;"/><path d="M1290.48,827.604l9.263,-48.883c1.424,-7.696 2.425,-14.388 3.133,-20.088l10.4,0l-1.846,12.971l0.429,0c6.408,-9.692 15.104,-14.542 24.225,-14.542c10.55,0 15.529,6.696 16.1,15.396c6.125,-9.979 14.971,-15.262 25.225,-15.396c7.984,0 16.817,5.134 16.817,18.105c-0,3.129 -0.421,7.829 -1.142,11.679l-7.691,40.758l-11.542,0l7.404,-39.762c0.575,-2.563 1.004,-6.125 1.004,-8.975c0,-7.263 -2.712,-11.975 -10.4,-11.975c-8.562,-0 -18.816,9.979 -21.662,25.375l-6.559,35.337l-11.404,0l7.7,-40.471c0.571,-3.129 0.85,-5.704 0.85,-8.412c0,-5.842 -1.566,-11.829 -10.258,-11.829c-8.7,-0 -19.388,11.404 -22.096,26.079l-6.408,34.633l-11.542,0Z" style="fill:#f7931d;fill-rule:nonzero;"/><path d="M1458.09,767.462c-1.713,-0.57 -4.134,-0.991 -8.121,-0.991c-17.817,-0 -32.496,18.525 -32.496,37.762c-0,7.692 2.708,15.242 11.691,15.242c9.971,0 21.659,-12.817 24.938,-31.2l3.988,-20.813Zm-7.551,60.142c0,-4.137 0.713,-10.683 1.567,-17.817l-0.283,0c-7.554,14.4 -17.104,19.38 -26.792,19.38c-12.262,-0 -19.812,-9.692 -19.812,-22.796c-0,-24.088 17.675,-49.309 47.595,-49.309c6.559,0 13.826,1.146 18.53,2.559l-6.98,36.067c-2.283,11.958 -3.137,24.229 -2.854,31.916l-10.971,0Z" style="fill:#f7931d;fill-rule:nonzero;"/><path d="M1525.94,824.9c-3.559,1.846 -10.692,4.267 -19.95,4.267c-17.821,-0 -26.505,-11.959 -26.505,-26.638c0,-23.662 17.38,-45.467 42.18,-45.467c6.416,0 12.262,1.855 14.395,3.13l-3.42,9.27c-2.705,-1.279 -6.555,-2.57 -11.684,-2.57c-17.958,-0 -29.212,17.671 -29.212,34.058c-0,11.263 5.837,18.525 17.1,18.525c7.125,0 12.4,-2.133 15.958,-3.837l1.138,9.262Z" style="fill:#f7931d;fill-rule:nonzero;"/><path d="M1537.43,827.604l19.242,-101.187l11.829,-0l-8.558,44.325l0.287,-0c5.846,-8.417 14.255,-13.68 24.654,-13.68c7.842,0 17.109,4.696 17.109,18.525c-0,3.567 -0.429,8.125 -1.15,11.546l-7.692,40.471l-11.829,0l7.696,-39.904c0.429,-2.421 0.854,-5.7 0.854,-9.554c0,-6.258 -2.988,-11.254 -10.683,-11.254c-9.125,-0 -20.663,10.687 -23.521,26.079l-6.409,34.633l-11.829,0Z" style="fill:#f7931d;fill-rule:nonzero;"/><path d="M1659.95,775.013c-0,-5.551 -4.288,-8.696 -10.554,-8.696c-11.259,-0 -19.663,10.987 -22.521,21.812c18.529,0.283 33.075,-2.279 33.075,-12.962l-0,-0.154Zm2.554,48.741c-5.121,2.863 -13.533,5.413 -22.8,5.413c-18.246,-0 -26.217,-12.525 -26.217,-27.779c0,-20.817 15.388,-44.326 37.621,-44.326c13.113,0 20.242,7.846 20.242,17.821c-0,18.088 -20.388,22.8 -45.896,22.367c-0.567,2.992 -0.142,9.408 1.421,13.104c2.717,6.288 8.271,9.275 15.4,9.275c8.121,0 14.246,-2.421 18.525,-4.712l1.704,8.837Z" style="fill:#f7931d;fill-rule:nonzero;"/><path d="M1677.01,827.604l9.125,-48.883c1.567,-7.696 2.563,-14.388 3.275,-20.088l10.688,0l-1.85,13.546l0.283,0c6.267,-9.7 15.534,-15.117 25.654,-15.117c8.121,0 17.388,4.696 17.388,19.096c-0,3.138 -0.571,7.554 -1.283,11.113l-7.696,40.333l-11.688,0l7.558,-39.904c0.421,-2.567 0.851,-5.829 0.851,-8.833c-0,-6.846 -2.709,-11.975 -10.83,-11.975c-8.408,-0 -20.379,10.129 -23.516,27.225l-6.271,33.487l-11.688,0Z" style="fill:#f7931d;fill-rule:nonzero;"/><path d="M285.787,228.792c-3.9,1.571 -5.787,6.016 -4.204,9.937c63.605,156.938 214.146,258.35 383.509,258.35c4.22,0 7.633,-3.421 7.633,-7.625c-0,-4.216 -3.413,-7.629 -7.633,-7.629c-163.117,0 -308.1,-97.675 -369.355,-248.842c-1.583,-3.895 -6.037,-5.787 -9.95,-4.191Z" style="fill:#f7931d;fill-rule:nonzero;"/><path d="M383.583,300.142c-228.133,17.291 -399.666,216.95 -382.383,445.091c1.846,24.638 5.913,49.204 12.071,73.029c1.229,4.771 6.087,7.625 10.854,6.401c4.758,-1.234 7.621,-6.088 6.392,-10.846c-5.892,-22.809 -9.779,-46.325 -11.559,-69.925c-16.537,-218.342 147.634,-409.438 365.967,-425.984c162.129,-12.262 313.596,73.9 385.875,219.509c2.187,4.396 7.529,6.204 11.933,4.012c4.417,-2.183 6.209,-7.529 4.021,-11.937c-75.525,-152.138 -233.779,-242.167 -403.171,-229.35Z" style="fill:#c1272d;fill-rule:nonzero;"/><path d="M1063.39,3.746c-4.15,0.75 -6.912,4.708 -6.174,8.858c4.162,23.254 6.27,47.088 6.27,70.833c0,219.671 -178.716,398.388 -398.391,398.388c-4.221,0 -7.634,3.413 -7.634,7.629c0,4.204 3.413,7.625 7.634,7.625c228.091,0 413.662,-185.558 413.662,-413.642c0,-24.641 -2.196,-49.379 -6.504,-73.512c-0.746,-4.15 -4.712,-6.921 -8.863,-6.179Z" style="fill:#f7931d;fill-rule:nonzero;"/></g></svg>